<?xml version="1.0" encoding="iso-8859-1"?>
<!-- Generator: Adobe Illustrator 19.0.0, SVG Export Plug-In . SVG Version: 6.00 Build 0)  -->
<svg version="1.1" id="Capa_1" xmlns="http://www.w3.org/2000/svg" xmlns:xlink="http://www.w3.org/1999/xlink" x="0px" y="0px"
	 viewBox="0 0 512.003 512.003" style="enable-background:new 0 0 512.003 512.003;" xml:space="preserve">
<g>
	<g>
		<path style="fill:#90BAE1;" d="M264.824,489.923H70.618c-9.739-0.029-17.626-7.917-17.655-17.655v-26.483h150.775
			C215.831,466.883,238.695,489.923,264.824,489.923z"/>
		<g>
			<path style="fill:#B0D3F0;" d="M177.255,454.613H52.962c-19.501,0-35.31-15.809-35.31-35.31V105.641
				c2.091,1.065,4.319,1.837,6.621,2.295c12.198,2.677,24.801-2.309,31.868-12.606c4.823-7.085,11.557-12.657,19.421-16.066
				c0.088-0.088,0.088-0.088,0.177-0.088c2.401-0.951,5.128-0.547,7.15,1.059l0.265,0.265c14.352,10.772,22.79,27.676,22.775,45.621
				v35.487c0.002,5.206,2.302,10.145,6.285,13.498c3.983,3.353,9.242,4.777,14.372,3.892c8.721-1.769,14.904-9.555,14.654-18.45
				v-52.966c-0.156-12.476,4.345-24.562,12.623-33.898c1.059-1.148,2.03-2.383,3.001-3.531c2.75-3.785,7.856-4.986,12.006-2.825
				c6.272,3.926,13.522,6.006,20.921,6.003c6.392-0.014,12.688-1.557,18.361-4.502c2.552-1.43,5.646-1.503,8.263-0.194
				s4.415,3.827,4.802,6.727c0.267,1.586,0.651,3.149,1.148,4.679c4.524,15.224,17.613,26.339,33.368,28.337
				c12.088,1.453,24.171-2.749,32.75-11.388c3.608,1.843,7.6,2.811,11.652,2.825v354.798H177.255z"/>
			<path style="fill:#B0D3F0;" d="M370.755,198.613v114.759c-14.742,1.766-19.332,6.709-35.31,8.033V216.268
				c-0.029-9.739-7.917-17.626-17.655-17.655h-26.483v-35.31h44.138C354.947,163.303,370.755,179.112,370.755,198.613z"/>
		</g>
		<path style="fill:#E57E25;" d="M264.824,436.958H52.962c-9.751,0-17.655-7.904-17.655-17.655V145.647l17.655-52.966l17.655-8.828
			h150.069l61.793,44.138v291.31C282.48,429.053,274.575,436.958,264.824,436.958z"/>
		<g>
			<path style="fill:#D25627;" d="M105.928,189.785c-4.875,0-8.828,3.952-8.828,8.828v203.034c0,4.875,3.952,8.828,8.828,8.828
				s8.828-3.952,8.828-8.828V198.613C114.756,193.738,110.803,189.785,105.928,189.785z"/>
			<path style="fill:#D25627;" d="M158.893,189.785c-4.875,0-8.828,3.952-8.828,8.828v158.897c0,4.875,3.952,8.828,8.828,8.828
				s8.828-3.952,8.828-8.828V198.613C167.721,193.738,163.769,189.785,158.893,189.785z"/>
			<path style="fill:#D25627;" d="M255.997,189.785c-4.875,0-8.828,3.952-8.828,8.828v203.034c0,4.875,3.952,8.828,8.828,8.828
				s8.828-3.952,8.828-8.828V198.613C264.824,193.738,260.872,189.785,255.997,189.785z"/>
			<path style="fill:#D25627;" d="M203.031,189.785c-4.875,0-8.828,3.952-8.828,8.828v203.034c0,4.875,3.952,8.828,8.828,8.828
				s8.828-3.952,8.828-8.828V198.613C211.859,193.738,207.907,189.785,203.031,189.785z"/>
			<path style="fill:#D25627;" d="M61.79,189.785c-4.875,0-8.828,3.952-8.828,8.828v203.034c0,4.875,3.952,8.828,8.828,8.828
				s8.828-3.952,8.828-8.828V198.613C70.618,193.738,66.665,189.785,61.79,189.785z"/>
		</g>
		<path style="fill:#E57E25;" d="M194.204,366.337h300.138c4.875,0,8.828,3.952,8.828,8.828v44.138
			c0,39.003-31.618,70.621-70.621,70.621H255.997c-39.003,0-70.621-31.618-70.621-70.621v-44.138
			C185.376,370.289,189.328,366.337,194.204,366.337z"/>
	</g>
	<path style="fill:none;stroke:#000000;stroke-width:2;stroke-linecap:round;stroke-linejoin:round;" d="M459.031,366.337H194.204"
		/>
	<g>
		<path style="fill:#F0C419;" d="M186.082,339.854v-8.828c0,0-8.298-35.31,33.192-35.31c27.012,0,27.012-8.828,54.025-8.828
			c8.918-0.205,17.799,1.2,26.218,4.149c8.924,3.291,18.386,4.878,27.895,4.679c3.001,0,5.65-0.088,8.033-0.265
			c15.978-1.324,20.568-6.268,35.31-8.033c3.577-0.38,7.173-0.556,10.77-0.53c26.924,0,26.924,8.828,53.937,8.828
			c0,0,41.578,0,49.876,35.31l0.088,0.177l8.21,17.479L186.082,339.854z"/>
		<path style="fill:#E64C3C;" d="M476.501,331.027H187.142c3.081-8.828,11.388-17.655,32.177-17.655
			c27.012,0,27.012-8.828,54.025-8.828c27.012,0,27.101,8.828,54.122,8.828s27.012-8.828,54.025-8.828s26.933,8.828,53.954,8.828
			C450.912,313.66,465.651,319.998,476.501,331.027z"/>
		<path style="fill:#804537;" d="M511.997,361.923c0.052,8.115-3.049,15.933-8.651,21.804l-0.177,0.177
			c-4.385,4.579-10.155,7.588-16.419,8.563h-1.236l-300.138,0.353h-14.654c-1.059,0-2.03-0.088-3.001-0.177
			c-6.959-0.719-13.406-3.989-18.097-9.181c-11.281-12.286-11.165-31.196,0.265-43.343c5.382-5.79,12.928-9.084,20.833-9.092h311.79
			c0.971,0,1.942,0.088,2.913,0.177C500.833,333.146,512.295,346.397,511.997,361.923z"/>
		<path style="fill:#F29C1F;" d="M485.514,375.165v44.138c0,39.003-31.618,70.621-70.621,70.621H238.342
			c-25.22,0.031-48.526-13.441-61.087-35.31c-6.282-10.704-9.575-22.899-9.534-35.31v-44.138c0-4.875,3.952-8.828,8.828-8.828
			h300.138C481.562,366.337,485.514,370.289,485.514,375.165z"/>
		<path style="fill:#D1D4D1;" d="M326.618,109.984c0.094,7.085-2.654,13.912-7.631,18.955c-4.977,5.043-11.767,7.882-18.852,7.881
			c-4.052-0.014-8.044-0.981-11.652-2.825c-8.579,8.639-20.662,12.84-32.75,11.388c-15.756-1.998-28.844-13.113-33.368-28.337
			c-0.497-1.529-0.88-3.093-1.148-4.679c-0.387-2.899-2.186-5.419-4.802-6.727s-5.711-1.235-8.263,0.194
			c-5.673,2.945-11.969,4.488-18.361,4.502c-7.399,0.003-14.65-2.077-20.921-6.003c-4.149-2.162-9.256-0.96-12.006,2.825
			c-0.971,1.148-1.942,2.383-3.001,3.531c-8.278,9.336-12.779,21.422-12.623,33.898v52.965c0.251,8.895-5.933,16.68-14.654,18.45
			c-5.13,0.885-10.389-0.539-14.372-3.892c-3.983-3.353-6.282-8.292-6.285-13.498v-35.487c0.021-17.951-8.418-34.862-22.775-45.639
			l-0.265-0.265c-2.022-1.606-4.749-2.01-7.15-1.059c-0.088,0-0.088,0-0.177,0.088c-7.864,3.41-14.598,8.981-19.421,16.066
			c-7.062,10.304-19.666,15.296-31.868,12.623c-2.302-0.458-4.529-1.23-6.621-2.295v-0.088c-8.684-3.982-14.971-11.84-16.949-21.186
			c-1.822-8.383-0.067-17.147,4.841-24.183c4.908-7.036,12.527-11.708,21.024-12.893c-0.071-0.136-0.102-0.289-0.088-0.441
			c0-19.501,15.809-35.31,35.31-35.31c2.254,0.007,4.502,0.244,6.709,0.706c9.012-16.162,25.806-26.449,44.298-27.134
			c18.492-0.686,36.001,8.33,46.185,23.78c8.052-10.246,20.66-15.832,33.659-14.912c12.998,0.92,24.695,8.225,31.224,19.503
			c4.427-7.424,12.768-11.594,21.363-10.681c6.491,1.053,12.232,4.805,15.801,10.328c3.446,4.728,4.64,10.732,3.266,16.419
			c12.111,1.178,23.012,7.848,29.572,18.097c9.497-2.437,19.528,1.081,25.423,8.916C323.724,97.913,326.342,103.781,326.618,109.984
			z"/>
		<g>
			
				<ellipse transform="matrix(-0.4513 -0.8924 0.8924 -0.4513 106.0241 164.8796)" style="fill:#E6E7E8;" cx="103.702" cy="49.844" rx="13.241" ry="22.069"/>
			
				<ellipse transform="matrix(-0.4513 -0.8924 0.8924 -0.4513 16.4579 156.2851)" style="fill:#E6E7E8;" cx="56.277" cy="73.083" rx="9.225" ry="15.378"/>
			
				<ellipse transform="matrix(-0.7815 -0.6239 0.6239 -0.7815 -28.924 201.5468)" style="fill:#E6E7E8;" cx="20.829" cy="105.838" rx="9.225" ry="15.378"/>
			
				<ellipse transform="matrix(-0.3509 -0.9364 0.9364 -0.3509 201.8872 243.5445)" style="fill:#E6E7E8;" cx="185.357" cy="51.797" rx="9.225" ry="15.378"/>
			<ellipse style="fill:#E6E7E8;" cx="239.841" cy="52.299" rx="8.828" ry="8.828"/>
			<ellipse style="fill:#E6E7E8;" cx="307.479" cy="97.747" rx="8.828" ry="8.828"/>
		</g>
	</g>
</g>
<g>
</g>
<g>
</g>
<g>
</g>
<g>
</g>
<g>
</g>
<g>
</g>
<g>
</g>
<g>
</g>
<g>
</g>
<g>
</g>
<g>
</g>
<g>
</g>
<g>
</g>
<g>
</g>
<g>
</g>
</svg>
