<?xml version="1.0" encoding="iso-8859-1"?>
<!-- Generator: Adobe Illustrator 19.0.0, SVG Export Plug-In . SVG Version: 6.00 Build 0)  -->
<svg version="1.1" id="Capa_1" xmlns="http://www.w3.org/2000/svg" xmlns:xlink="http://www.w3.org/1999/xlink" x="0px" y="0px"
	 viewBox="0 0 512 512" style="enable-background:new 0 0 512 512;" xml:space="preserve">
<g>
	<path style="fill:#F18D46;" d="M420.881,329.763c0,32.542,61.006,49.812,68.643,51.894c-10.153-1.302-121.144-15.967-129.388,8.852
		c-8.504,25.426,32.803,92.42,34.625,95.371c-30.595-11.07-62.837-16.908-95.371-17.269L256,416.542l-43.39,52.068
		c-32.534,0.362-64.775,6.2-95.371,17.269c1.822-2.951,43.129-69.944,34.625-95.371c-8.244-24.819-119.235-10.153-129.388-8.852
		c7.637-2.083,68.643-19.352,68.643-51.894c0-34.712-69.424-60.746-69.424-60.746c25.426-33.844-15.273-92.594-17.269-95.371
		c60.659,34.625,95.371,8.591,95.371,8.591s52.068,69.424,78.102,34.712s-17.356-112.814-17.356-112.814
		C221.288,104.136,256,0,256,0s34.712,104.136,95.458,104.136c0,0-43.39,78.102-17.356,112.814s78.102-34.712,78.102-34.712
		s34.712,26.034,95.371-8.591c-1.996,2.777-42.696,61.527-17.269,95.371C490.305,269.017,420.881,295.051,420.881,329.763z"/>
	<g>
		<path style="fill:#804537;" d="M256,208.271c-4.793,0-8.678,3.885-8.678,8.678v286.373c0,4.793,3.885,8.678,8.678,8.678
			c4.793,0,8.678-3.885,8.678-8.678V216.949C264.678,212.156,260.793,208.271,256,208.271z"/>
		<path style="fill:#804537;" d="M97.028,245.3c-3.513-3.264-9.007-3.062-12.271,0.451c-3.264,3.513-3.062,9.007,0.451,12.271
			L206.7,370.836c3.513,3.264,9.007,3.062,12.271-0.451c3.264-3.513,3.062-9.007-0.451-12.271L97.028,245.3z"/>
		<path style="fill:#804537;" d="M427.242,245.751c-1.567-1.688-3.74-2.684-6.042-2.769c-2.302-0.085-4.542,0.749-6.229,2.318
			L293.48,358.114c-3.513,3.264-3.715,8.758-0.451,12.271c3.264,3.513,8.758,3.715,12.271,0.451l121.492-112.814
			c1.688-1.567,2.684-3.74,2.769-6.042C429.645,249.679,428.811,247.438,427.242,245.751z"/>
		<path style="fill:#804537;" d="M250.793,171.824c0.313,0.196,0.641,0.367,0.981,0.512c0.217,0.121,0.399,0.286,0.625,0.391
			l0.529,0.217c0.979,0.388,2.019,0.597,3.072,0.616c1.05-0.02,2.087-0.229,3.063-0.616l0.529-0.217
			c0.226-0.104,0.408-0.269,0.625-0.391c0.343-0.144,0.674-0.315,0.989-0.512l34.712-26.034c3.834-2.876,4.611-8.315,1.736-12.149
			c-2.876-3.834-8.315-4.611-12.149-1.736l-20.827,15.62V86.78c0-4.793-3.885-8.678-8.678-8.678c-4.793,0-8.678,3.885-8.678,8.678
			v60.746l-20.827-15.62c-2.48-1.86-5.765-2.256-8.616-1.038c-2.851,1.218-4.836,3.864-5.207,6.942
			c-0.371,3.078,0.929,6.12,3.409,7.98L250.793,171.824z"/>
	</g>
</g>
<g>
</g>
<g>
</g>
<g>
</g>
<g>
</g>
<g>
</g>
<g>
</g>
<g>
</g>
<g>
</g>
<g>
</g>
<g>
</g>
<g>
</g>
<g>
</g>
<g>
</g>
<g>
</g>
<g>
</g>
</svg>
